<?xml version="1.0" standalone="no"?>
<!DOCTYPE svg PUBLIC "-//W3C//DTD SVG 20010904//EN"
 "http://www.w3.org/TR/2001/REC-SVG-20010904/DTD/svg10.dtd">
<svg version="1.0" xmlns="http://www.w3.org/2000/svg"
 width="640.000000pt" height="640.000000pt" viewBox="0 0 640.000000 640.000000"
 preserveAspectRatio="xMidYMid meet">
<metadata>
Created by potrace 1.14, written by Peter Selinger 2001-2017
</metadata>
<g transform="translate(0.000000,640.000000) scale(0.100000,-0.100000)"
fill="#000000" stroke="none">
<path d="M2999 6396 c-2 -2 -43 -7 -91 -10 -48 -3 -93 -8 -100 -10 -7 -3 -35
-7 -63 -10 -49 -6 -187 -30 -232 -41 -13 -3 -32 -7 -43 -9 -286 -64 -650 -212
-921 -377 -93 -56 -306 -202 -319 -218 -3 -3 -39 -33 -80 -65 -108 -86 -341
-322 -443 -451 -97 -121 -267 -371 -267 -392 0 -7 -3 -13 -7 -13 -5 0 -13 -10
-19 -23 -6 -12 -38 -76 -71 -142 -33 -66 -71 -145 -83 -175 -12 -30 -29 -69
-36 -87 -29 -65 -100 -288 -129 -403 -32 -128 -69 -345 -82 -488 -14 -149 -7
-577 11 -679 2 -10 7 -40 10 -68 11 -73 54 -281 71 -345 9 -30 18 -65 20 -76
20 -91 130 -375 204 -523 359 -722 958 -1276 1691 -1564 295 -115 568 -181
890 -214 98 -10 484 -10 580 0 41 5 92 10 112 12 61 6 268 45 333 62 33 8 65
16 70 17 78 18 270 81 375 123 415 167 764 397 1076 708 176 175 344 383 448
555 15 25 41 68 58 95 102 166 259 529 303 701 3 10 21 78 40 151 19 72 36
149 39 170 3 21 7 49 10 63 30 164 41 301 41 530 -1 239 -8 336 -41 530 -22
131 -23 139 -50 240 -13 52 -27 104 -29 114 -6 26 -44 146 -55 171 -4 11 -27
70 -50 130 -90 234 -229 484 -394 710 -69 94 -67 92 -182 224 -497 569 -1213
953 -1959 1050 -44 6 -100 13 -125 16 -49 7 -505 16 -511 11z"/>
</g>
</svg>
